{"asset":{"version":"2.0","generator":"Blockbench 4.12.3 glTF exporter"},"scenes":[{"nodes":[9],"name":"blockbench_export"}],"scene":0,"nodes":[{"name":"Torus","mesh":0},{"translation":[-0.0087125,1.017538125,0],"name":"bone4","children":[0]},{"name":"Torus.001","mesh":1},{"translation":[-0.0087125,1.18016125,0],"name":"bone5","children":[2]},{"name":"Torus.002","mesh":2},{"translation":[-0.0087125,1.32221875,0],"name":"bone6","children":[4]},{"name":"Core","mesh":3},{"translation":[0,1.3218875,0],"name":"bone7","children":[6]},{"name":"charger","children":[1,3,5,7]},{"children":[8]}],"bufferViews":[{"buffer":0,"byteOffset":0,"byteLength":864,"target":34962,"byteStride":12},{"buffer":0,"byteOffset":864,"byteLength":864,"target":34962,"byteStride":12},{"buffer":0,"byteOffset":1728,"byteLength":576,"target":34962,"byteStride":8},{"buffer":0,"byteOffset":2304,"byteLength":12,"target":34963},{"buffer":0,"byteOffset":2316,"byteLength":24,"target":34963},{"buffer":0,"byteOffset":2340,"byteLength":12,"target":34963},{"buffer":0,"byteOffset":2352,"byteLength":24,"target":34963},{"buffer":0,"byteOffset":2376,"byteLength":12,"target":34963},{"buffer":0,"byteOffset":2388,"byteLength":24,"target":34963},{"buffer":0,"byteOffset":2412,"byteLength":12,"target":34963},{"buffer":0,"byteOffset":2424,"byteLength":24,"target":34963},{"buffer":0,"byteOffset":2448,"byteLength":12,"target":34963},{"buffer":0,"byteOffset":2460,"byteLength":24,"target":34963},{"buffer":0,"byteOffset":2484,"byteLength":12,"target":34963},{"buffer":0,"byteOffset":2496,"byteLength":24,"target":34963},{"buffer":0,"byteOffset":2520,"byteLength":864,"target":34962,"byteStride":12},{"buffer":0,"byteOffset":3384,"byteLength":864,"target":34962,"byteStride":12},{"buffer":0,"byteOffset":4248,"byteLength":576,"target":34962,"byteStride":8},{"buffer":0,"byteOffset":4824,"byteLength":12,"target":34963},{"buffer":0,"byteOffset":4836,"byteLength":24,"target":34963},{"buffer":0,"byteOffset":4860,"byteLength":12,"target":34963},{"buffer":0,"byteOffset":4872,"byteLength":24,"target":34963},{"buffer":0,"byteOffset":4896,"byteLength":12,"target":34963},{"buffer":0,"byteOffset":4908,"byteLength":24,"target":34963},{"buffer":0,"byteOffset":4932,"byteLength":12,"target":34963},{"buffer":0,"byteOffset":4944,"byteLength":24,"target":34963},{"buffer":0,"byteOffset":4968,"byteLength":12,"target":34963},{"buffer":0,"byteOffset":4980,"byteLength":24,"target":34963},{"buffer":0,"byteOffset":5004,"byteLength":12,"target":34963},{"buffer":0,"byteOffset":5016,"byteLength":24,"target":34963},{"buffer":0,"byteOffset":5040,"byteLength":864,"target":34962,"byteStride":12},{"buffer":0,"byteOffset":5904,"byteLength":864,"target":34962,"byteStride":12},{"buffer":0,"byteOffset":6768,"byteLength":576,"target":34962,"byteStride":8},{"buffer":0,"byteOffset":7344,"byteLength":12,"target":34963},{"buffer":0,"byteOffset":7356,"byteLength":24,"target":34963},{"buffer":0,"byteOffset":7380,"byteLength":12,"target":34963},{"buffer":0,"byteOffset":7392,"byteLength":24,"target":34963},{"buffer":0,"byteOffset":7416,"byteLength":12,"target":34963},{"buffer":0,"byteOffset":7428,"byteLength":24,"target":34963},{"buffer":0,"byteOffset":7452,"byteLength":12,"target":34963},{"buffer":0,"byteOffset":7464,"byteLength":24,"target":34963},{"buffer":0,"byteOffset":7488,"byteLength":12,"target":34963},{"buffer":0,"byteOffset":7500,"byteLength":24,"target":34963},{"buffer":0,"byteOffset":7524,"byteLength":12,"target":34963},{"buffer":0,"byteOffset":7536,"byteLength":24,"target":34963},{"buffer":0,"byteOffset":7560,"byteLength":720,"target":34962,"byteStride":12},{"buffer":0,"byteOffset":8280,"byteLength":720,"target":34962,"byteStride":12},{"buffer":0,"byteOffset":9000,"byteLength":480,"target":34962,"byteStride":8},{"buffer":0,"byteOffset":9480,"byteLength":120,"target":34963}],"buffers":[{"byteLength":9600,"uri":"data:application/octet-stream;base64,"}],"accessors":[{"bufferView":0,"componentType":5126,"count":72,"max":[0.3424093723297119,0.07089187204837799,0.38376811146736145],"min":[-0.3424087464809418,-0.07089125365018845,-0.38376811146736145],"type":"VEC3"},{"bufferView":1,"componentType":5126,"count":72,"max":[0.9986295104026794,0.8153700232505798,0.8910055756568909],"min":[-0.9986295104026794,-0.8153727054595947,-0.8910055756568909],"type":"VEC3"},{"bufferView":2,"componentType":5126,"count":72,"max":[1.019012451171875,1.0167875289916992],"min":[0.125,0.21875],"type":"VEC2"},{"bufferView":3,"componentType":5123,"count":6,"max":[3],"min":[0],"type":"SCALAR"},{"bufferView":4,"componentType":5123,"count":12,"max":[11],"min":[4],"type":"SCALAR"},{"bufferView":5,"componentType":5123,"count":6,"max":[15],"min":[12],"type":"SCALAR"},{"bufferView":6,"componentType":5123,"count":12,"max":[23],"min":[16],"type":"SCALAR"},{"bufferView":7,"componentType":5123,"count":6,"max":[27],"min":[24],"type":"SCALAR"},{"bufferView":8,"componentType":5123,"count":12,"max":[35],"min":[28],"type":"SCALAR"},{"bufferView":9,"componentType":5123,"count":6,"max":[39],"min":[36],"type":"SCALAR"},{"bufferView":10,"componentType":5123,"count":12,"max":[47],"min":[40],"type":"SCALAR"},{"bufferView":11,"componentType":5123,"count":6,"max":[51],"min":[48],"type":"SCALAR"},{"bufferView":12,"componentType":5123,"count":12,"max":[59],"min":[52],"type":"SCALAR"},{"bufferView":13,"componentType":5123,"count":6,"max":[63],"min":[60],"type":"SCALAR"},{"bufferView":14,"componentType":5123,"count":12,"max":[71],"min":[64],"type":"SCALAR"},{"bufferView":15,"componentType":5126,"count":72,"max":[0.32672375440597534,0.06239749863743782,0.3267231285572052],"min":[-0.32672375440597534,-0.06239812448620796,-0.3267231285572052],"type":"VEC3"},{"bufferView":16,"componentType":5126,"count":72,"max":[0.9659257531166077,0.8153725862503052,0.9659260511398315],"min":[-0.9659257531166077,-0.8153699636459351,-0.9659260511398315],"type":"VEC3"},{"bufferView":17,"componentType":5126,"count":72,"max":[1.0257500410079956,0.9997937679290771],"min":[0.125,0.21875],"type":"VEC2"},{"bufferView":18,"componentType":5123,"count":6,"max":[3],"min":[0],"type":"SCALAR"},{"bufferView":19,"componentType":5123,"count":12,"max":[11],"min":[4],"type":"SCALAR"},{"bufferView":20,"componentType":5123,"count":6,"max":[15],"min":[12],"type":"SCALAR"},{"bufferView":21,"componentType":5123,"count":12,"max":[23],"min":[16],"type":"SCALAR"},{"bufferView":22,"componentType":5123,"count":6,"max":[27],"min":[24],"type":"SCALAR"},{"bufferView":23,"componentType":5123,"count":12,"max":[35],"min":[28],"type":"SCALAR"},{"bufferView":24,"componentType":5123,"count":6,"max":[39],"min":[36],"type":"SCALAR"},{"bufferView":25,"componentType":5123,"count":12,"max":[47],"min":[40],"type":"SCALAR"},{"bufferView":26,"componentType":5123,"count":6,"max":[51],"min":[48],"type":"SCALAR"},{"bufferView":27,"componentType":5123,"count":12,"max":[59],"min":[52],"type":"SCALAR"},{"bufferView":28,"componentType":5123,"count":6,"max":[63],"min":[60],"type":"SCALAR"},{"bufferView":29,"componentType":5123,"count":12,"max":[71],"min":[64],"type":"SCALAR"},{"bufferView":30,"componentType":5126,"count":72,"max":[0.30366626381874084,0.057067498564720154,0.2924962639808655],"min":[-0.30366626381874084,-0.05706687644124031,-0.2924962639808655],"type":"VEC3"},{"bufferView":31,"componentType":5126,"count":72,"max":[0.9455189108848572,0.8153678774833679,0.9816277623176575],"min":[-0.9455189108848572,-0.8153713941574097,-0.9816275835037231],"type":"VEC3"},{"bufferView":32,"componentType":5126,"count":72,"max":[1.0290437936782837,0.9891374707221985],"min":[0.140625,0.21875],"type":"VEC2"},{"bufferView":33,"componentType":5123,"count":6,"max":[3],"min":[0],"type":"SCALAR"},{"bufferView":34,"componentType":5123,"count":12,"max":[11],"min":[4],"type":"SCALAR"},{"bufferView":35,"componentType":5123,"count":6,"max":[15],"min":[12],"type":"SCALAR"},{"bufferView":36,"componentType":5123,"count":12,"max":[23],"min":[16],"type":"SCALAR"},{"bufferView":37,"componentType":5123,"count":6,"max":[27],"min":[24],"type":"SCALAR"},{"bufferView":38,"componentType":5123,"count":12,"max":[35],"min":[28],"type":"SCALAR"},{"bufferView":39,"componentType":5123,"count":6,"max":[39],"min":[36],"type":"SCALAR"},{"bufferView":40,"componentType":5123,"count":12,"max":[47],"min":[40],"type":"SCALAR"},{"bufferView":41,"componentType":5123,"count":6,"max":[51],"min":[48],"type":"SCALAR"},{"bufferView":42,"componentType":5123,"count":12,"max":[59],"min":[52],"type":"SCALAR"},{"bufferView":43,"componentType":5123,"count":6,"max":[63],"min":[60],"type":"SCALAR"},{"bufferView":44,"componentType":5123,"count":12,"max":[71],"min":[64],"type":"SCALAR"},{"bufferView":45,"componentType":5126,"count":60,"max":[0.17062124609947205,0.19076062738895416,0.16226813197135925],"min":[-0.17062124609947205,-0.19076062738895416,-0.16226813197135925],"type":"VEC3"},{"bufferView":46,"componentType":5126,"count":60,"max":[0.9822450876235962,0.7946507930755615,0.9341711401939392],"min":[-0.9822450876235962,-0.7946507930755615,-0.9341711401939392],"type":"VEC3"},{"bufferView":47,"componentType":5126,"count":60,"max":[1.0130749940872192,0.9862062335014343],"min":[0.625,0.8125],"type":"VEC2"},{"bufferView":48,"componentType":5123,"count":60,"max":[59],"min":[0],"type":"SCALAR"}],"materials":[{"pbrMetallicRoughness":{"metallicFactor":0,"roughnessFactor":1,"baseColorTexture":{"index":0}},"alphaMode":"MASK","alphaCutoff":0.05,"doubleSided":true},{"pbrMetallicRoughness":{"metallicFactor":0,"roughnessFactor":1,"baseColorTexture":{"index":1}},"alphaMode":"MASK","alphaCutoff":0.05,"doubleSided":true}],"textures":[{"sampler":0,"source":0,"name":"bigdoor6.png"},{"sampler":1,"source":1,"name":"light5.png"}],"samplers":[{"magFilter":9728,"minFilter":9728,"wrapS":33071,"wrapT":33071},{"magFilter":9728,"minFilter":9728,"wrapS":33071,"wrapT":33071}],"images":[{"mimeType":"image/png","uri":"data:image/png;base64,"},{"mimeType":"image/png","uri":"data:image/png;base64,"}],"meshes":[{"primitives":[{"mode":4,"attributes":{"POSITION":0,"NORMAL":1,"TEXCOORD_0":2},"indices":3,"material":0},{"mode":4,"attributes":{"POSITION":0,"NORMAL":1,"TEXCOORD_0":2},"indices":4,"material":1},{"mode":4,"attributes":{"POSITION":0,"NORMAL":1,"TEXCOORD_0":2},"indices":5,"material":0},{"mode":4,"attributes":{"POSITION":0,"NORMAL":1,"TEXCOORD_0":2},"indices":6,"material":1},{"mode":4,"attributes":{"POSITION":0,"NORMAL":1,"TEXCOORD_0":2},"indices":7,"material":0},{"mode":4,"attributes":{"POSITION":0,"NORMAL":1,"TEXCOORD_0":2},"indices":8,"material":1},{"mode":4,"attributes":{"POSITION":0,"NORMAL":1,"TEXCOORD_0":2},"indices":9,"material":0},{"mode":4,"attributes":{"POSITION":0,"NORMAL":1,"TEXCOORD_0":2},"indices":10,"material":1},{"mode":4,"attributes":{"POSITION":0,"NORMAL":1,"TEXCOORD_0":2},"indices":11,"material":0},{"mode":4,"attributes":{"POSITION":0,"NORMAL":1,"TEXCOORD_0":2},"indices":12,"material":1},{"mode":4,"attributes":{"POSITION":0,"NORMAL":1,"TEXCOORD_0":2},"indices":13,"material":0},{"mode":4,"attributes":{"POSITION":0,"NORMAL":1,"TEXCOORD_0":2},"indices":14,"material":1}]},{"primitives":[{"mode":4,"attributes":{"POSITION":15,"NORMAL":16,"TEXCOORD_0":17},"indices":18,"material":0},{"mode":4,"attributes":{"POSITION":15,"NORMAL":16,"TEXCOORD_0":17},"indices":19,"material":1},{"mode":4,"attributes":{"POSITION":15,"NORMAL":16,"TEXCOORD_0":17},"indices":20,"material":0},{"mode":4,"attributes":{"POSITION":15,"NORMAL":16,"TEXCOORD_0":17},"indices":21,"material":1},{"mode":4,"attributes":{"POSITION":15,"NORMAL":16,"TEXCOORD_0":17},"indices":22,"material":0},{"mode":4,"attributes":{"POSITION":15,"NORMAL":16,"TEXCOORD_0":17},"indices":23,"material":1},{"mode":4,"attributes":{"POSITION":15,"NORMAL":16,"TEXCOORD_0":17},"indices":24,"material":0},{"mode":4,"attributes":{"POSITION":15,"NORMAL":16,"TEXCOORD_0":17},"indices":25,"material":1},{"mode":4,"attributes":{"POSITION":15,"NORMAL":16,"TEXCOORD_0":17},"indices":26,"material":0},{"mode":4,"attributes":{"POSITION":15,"NORMAL":16,"TEXCOORD_0":17},"indices":27,"material":1},{"mode":4,"attributes":{"POSITION":15,"NORMAL":16,"TEXCOORD_0":17},"indices":28,"material":0},{"mode":4,"attributes":{"POSITION":15,"NORMAL":16,"TEXCOORD_0":17},"indices":29,"material":1}]},{"primitives":[{"mode":4,"attributes":{"POSITION":30,"NORMAL":31,"TEXCOORD_0":32},"indices":33,"material":0},{"mode":4,"attributes":{"POSITION":30,"NORMAL":31,"TEXCOORD_0":32},"indices":34,"material":1},{"mode":4,"attributes":{"POSITION":30,"NORMAL":31,"TEXCOORD_0":32},"indices":35,"material":0},{"mode":4,"attributes":{"POSITION":30,"NORMAL":31,"TEXCOORD_0":32},"indices":36,"material":1},{"mode":4,"attributes":{"POSITION":30,"NORMAL":31,"TEXCOORD_0":32},"indices":37,"material":0},{"mode":4,"attributes":{"POSITION":30,"NORMAL":31,"TEXCOORD_0":32},"indices":38,"material":1},{"mode":4,"attributes":{"POSITION":30,"NORMAL":31,"TEXCOORD_0":32},"indices":39,"material":0},{"mode":4,"attributes":{"POSITION":30,"NORMAL":31,"TEXCOORD_0":32},"indices":40,"material":1},{"mode":4,"attributes":{"POSITION":30,"NORMAL":31,"TEXCOORD_0":32},"indices":41,"material":0},{"mode":4,"attributes":{"POSITION":30,"NORMAL":31,"TEXCOORD_0":32},"indices":42,"material":1},{"mode":4,"attributes":{"POSITION":30,"NORMAL":31,"TEXCOORD_0":32},"indices":43,"material":0},{"mode":4,"attributes":{"POSITION":30,"NORMAL":31,"TEXCOORD_0":32},"indices":44,"material":1}]},{"primitives":[{"mode":4,"attributes":{"POSITION":45,"NORMAL":46,"TEXCOORD_0":47},"indices":48,"material":1}]}]}