{"asset":{"version":"2.0","generator":"Blockbench 4.12.3 glTF exporter"},"scenes":[{"nodes":[14],"name":"blockbench_export"}],"scene":0,"nodes":[{"translation":[-1.5821220201994723e-16,0.5029236693548387,-0.06981876512096763],"name":"Sphere.006","mesh":0},{"translation":[-2.0678445934729783e-16,0.40625,0],"name":"Cylinder.003","mesh":1},{"translation":[-2.0678445934729783e-16,0.40625,0],"name":"neck","mesh":2},{"translation":[-2.0678445934729783e-16,0.40625,0],"name":"Eyes","mesh":3},{"translation":[-2.0678445934729783e-16,0.40625,0],"name":"Cylinder","mesh":4},{"translation":[-2.054563116860031e-16,0.5685429613095239,-1.1676498511904758],"name":"hed.001","mesh":5},{"translation":[-2.0678445934729783e-16,0.40625,0],"name":"Cone","mesh":6},{"translation":[-8.239936510889834e-18,-8.326672684688674e-17,-2.220446049250313e-16],"name":"wheel1","mesh":7},{"translation":[-1.8987090545652396e-16,0.18625,-0.44999999999999996],"name":"bone1","children":[7]},{"translation":[-8.239936510889834e-18,-8.326672684688674e-17,-2.220446049250313e-16],"name":"wheel2","mesh":8},{"translation":[-1.8987090545652396e-16,0.18625,0.0031250000000000444],"name":"bone2","children":[9]},{"translation":[-8.239936510889834e-18,-8.326672684688674e-17,0],"name":"wheel3","mesh":9},{"translation":[-1.8987090545652396e-16,0.18625,0.4500000000000002],"name":"bone3","children":[11]},{"rotation":[0,0.7071067811865475,0,0.7071067811865476],"name":"bone","children":[0,1,2,3,4,5,6,8,10,12]},{"children":[13]}],"bufferViews":[{"buffer":0,"byteOffset":0,"byteLength":6924,"target":34962,"byteStride":12},{"buffer":0,"byteOffset":6924,"byteLength":6924,"target":34962,"byteStride":12},{"buffer":0,"byteOffset":13848,"byteLength":4616,"target":34962,"byteStride":8},{"buffer":0,"byteOffset":18464,"byteLength":1460,"target":34963},{"buffer":0,"byteOffset":19924,"byteLength":1008,"target":34962,"byteStride":12},{"buffer":0,"byteOffset":20932,"byteLength":1008,"target":34962,"byteStride":12},{"buffer":0,"byteOffset":21940,"byteLength":672,"target":34962,"byteStride":8},{"buffer":0,"byteOffset":22612,"byteLength":216,"target":34963},{"buffer":0,"byteOffset":22828,"byteLength":984,"target":34962,"byteStride":12},{"buffer":0,"byteOffset":23812,"byteLength":984,"target":34962,"byteStride":12},{"buffer":0,"byteOffset":24796,"byteLength":656,"target":34962,"byteStride":8},{"buffer":0,"byteOffset":25452,"byteLength":240,"target":34963},{"buffer":0,"byteOffset":25692,"byteLength":432,"target":34962,"byteStride":12},{"buffer":0,"byteOffset":26124,"byteLength":432,"target":34962,"byteStride":12},{"buffer":0,"byteOffset":26556,"byteLength":288,"target":34962,"byteStride":8},{"buffer":0,"byteOffset":26844,"byteLength":96,"target":34963},{"buffer":0,"byteOffset":26940,"byteLength":1896,"target":34962,"byteStride":12},{"buffer":0,"byteOffset":28836,"byteLength":1896,"target":34962,"byteStride":12},{"buffer":0,"byteOffset":30732,"byteLength":1264,"target":34962,"byteStride":8},{"buffer":0,"byteOffset":31996,"byteLength":408,"target":34963},{"buffer":0,"byteOffset":32404,"byteLength":2208,"target":34962,"byteStride":12},{"buffer":0,"byteOffset":34612,"byteLength":2208,"target":34962,"byteStride":12},{"buffer":0,"byteOffset":36820,"byteLength":1472,"target":34962,"byteStride":8},{"buffer":0,"byteOffset":38292,"byteLength":480,"target":34963},{"buffer":0,"byteOffset":38772,"byteLength":4608,"target":34962,"byteStride":12},{"buffer":0,"byteOffset":43380,"byteLength":4608,"target":34962,"byteStride":12},{"buffer":0,"byteOffset":47988,"byteLength":3072,"target":34962,"byteStride":8},{"buffer":0,"byteOffset":51060,"byteLength":8,"target":34963},{"buffer":0,"byteOffset":51068,"byteLength":48,"target":34963},{"buffer":0,"byteOffset":51116,"byteLength":20,"target":34963},{"buffer":0,"byteOffset":51136,"byteLength":12,"target":34963},{"buffer":0,"byteOffset":51148,"byteLength":12,"target":34963},{"buffer":0,"byteOffset":51160,"byteLength":96,"target":34963},{"buffer":0,"byteOffset":51256,"byteLength":12,"target":34963},{"buffer":0,"byteOffset":51268,"byteLength":36,"target":34963},{"buffer":0,"byteOffset":51304,"byteLength":12,"target":34963},{"buffer":0,"byteOffset":51316,"byteLength":248,"target":34963},{"buffer":0,"byteOffset":51564,"byteLength":8,"target":34963},{"buffer":0,"byteOffset":51572,"byteLength":56,"target":34963},{"buffer":0,"byteOffset":51628,"byteLength":12,"target":34963},{"buffer":0,"byteOffset":51640,"byteLength":20,"target":34963},{"buffer":0,"byteOffset":51660,"byteLength":24,"target":34963},{"buffer":0,"byteOffset":51684,"byteLength":12,"target":34963},{"buffer":0,"byteOffset":51696,"byteLength":12,"target":34963},{"buffer":0,"byteOffset":51708,"byteLength":32,"target":34963},{"buffer":0,"byteOffset":51740,"byteLength":24,"target":34963},{"buffer":0,"byteOffset":51764,"byteLength":200,"target":34963},{"buffer":0,"byteOffset":51964,"byteLength":1344,"target":34962,"byteStride":12},{"buffer":0,"byteOffset":53308,"byteLength":1344,"target":34962,"byteStride":12},{"buffer":0,"byteOffset":54652,"byteLength":896,"target":34962,"byteStride":8},{"buffer":0,"byteOffset":55548,"byteLength":84,"target":34963},{"buffer":0,"byteOffset":55632,"byteLength":12,"target":34963},{"buffer":0,"byteOffset":55644,"byteLength":24,"target":34963},{"buffer":0,"byteOffset":55668,"byteLength":24,"target":34963},{"buffer":0,"byteOffset":55692,"byteLength":108,"target":34963},{"buffer":0,"byteOffset":55800,"byteLength":12,"target":34963},{"buffer":0,"byteOffset":55812,"byteLength":24,"target":34963},{"buffer":0,"byteOffset":55836,"byteLength":24,"target":34963},{"buffer":0,"byteOffset":55860,"byteLength":24,"target":34963},{"buffer":0,"byteOffset":55884,"byteLength":1344,"target":34962,"byteStride":12},{"buffer":0,"byteOffset":57228,"byteLength":1344,"target":34962,"byteStride":12},{"buffer":0,"byteOffset":58572,"byteLength":896,"target":34962,"byteStride":8},{"buffer":0,"byteOffset":59468,"byteLength":84,"target":34963},{"buffer":0,"byteOffset":59552,"byteLength":12,"target":34963},{"buffer":0,"byteOffset":59564,"byteLength":24,"target":34963},{"buffer":0,"byteOffset":59588,"byteLength":24,"target":34963},{"buffer":0,"byteOffset":59612,"byteLength":108,"target":34963},{"buffer":0,"byteOffset":59720,"byteLength":12,"target":34963},{"buffer":0,"byteOffset":59732,"byteLength":24,"target":34963},{"buffer":0,"byteOffset":59756,"byteLength":24,"target":34963},{"buffer":0,"byteOffset":59780,"byteLength":24,"target":34963},{"buffer":0,"byteOffset":59804,"byteLength":1344,"target":34962,"byteStride":12},{"buffer":0,"byteOffset":61148,"byteLength":1344,"target":34962,"byteStride":12},{"buffer":0,"byteOffset":62492,"byteLength":896,"target":34962,"byteStride":8},{"buffer":0,"byteOffset":63388,"byteLength":84,"target":34963},{"buffer":0,"byteOffset":63472,"byteLength":12,"target":34963},{"buffer":0,"byteOffset":63484,"byteLength":24,"target":34963},{"buffer":0,"byteOffset":63508,"byteLength":24,"target":34963},{"buffer":0,"byteOffset":63532,"byteLength":108,"target":34963},{"buffer":0,"byteOffset":63640,"byteLength":12,"target":34963},{"buffer":0,"byteOffset":63652,"byteLength":24,"target":34963},{"buffer":0,"byteOffset":63676,"byteLength":24,"target":34963},{"buffer":0,"byteOffset":63700,"byteLength":24,"target":34963},{"buffer":0,"byteOffset":63724,"byteLength":16},{"buffer":0,"byteOffset":63740,"byteLength":64},{"buffer":0,"byteOffset":63804,"byteLength":12},{"buffer":0,"byteOffset":63816,"byteLength":48},{"buffer":0,"byteOffset":63864,"byteLength":12},{"buffer":0,"byteOffset":63876,"byteLength":48}],"buffers":[{"byteLength":63924,"uri":"data:application/octet-stream;base64,"}],"accessors":[{"bufferView":0,"componentType":5126,"count":577,"max":[0.868266224861145,0.5498625636100769,0.899976909160614],"min":[-0.868266224861145,-0.22050492465496063,-0.7320131063461304],"type":"VEC3"},{"bufferView":1,"componentType":5126,"count":577,"max":[1,1,0.9999316930770874],"min":[-1,-1,-0.9999999403953552],"type":"VEC3"},{"bufferView":2,"componentType":5126,"count":577,"max":[1.0808117389678955,0.9613937735557556],"min":[0.125,0],"type":"VEC2"},{"bufferView":3,"componentType":5123,"count":729,"max":[576],"min":[0],"type":"SCALAR"},{"bufferView":4,"componentType":5126,"count":84,"max":[0.23024187982082367,0.5360631346702576,0.19939500093460083],"min":[-0.23024187982082367,0.12674500048160553,-0.19939500093460083],"type":"VEC3"},{"bufferView":5,"componentType":5126,"count":84,"max":[0.8660303354263306,1,1],"min":[-0.8660303354263306,-1,-1],"type":"VEC3"},{"bufferView":6,"componentType":5126,"count":84,"max":[0.5118937492370605,0.5118956565856934],"min":[0.25,0.0625],"type":"VEC2"},{"bufferView":7,"componentType":5123,"count":108,"max":[83],"min":[0],"type":"SCALAR"},{"bufferView":8,"componentType":5126,"count":82,"max":[0.2142062485218048,0.3628237545490265,-0.5644912719726562],"min":[-0.2142062485218048,-0.08645812422037125,-1.2802737951278687],"type":"VEC3"},{"bufferView":9,"componentType":5126,"count":82,"max":[0.9438334703445435,0.7928125262260437,0.9242234230041504],"min":[-0.9438334703445435,-0.9972853064537048,-0.8618441224098206],"type":"VEC3"},{"bufferView":10,"componentType":5126,"count":82,"max":[1.0151662826538086,1.0140196084976196],"min":[0.34375,0.5],"type":"VEC2"},{"bufferView":11,"componentType":5123,"count":120,"max":[81],"min":[0],"type":"SCALAR"},{"bufferView":12,"componentType":5126,"count":36,"max":[0.3280262351036072,0.27231186628341675,-1.0905187129974365],"min":[-0.3280262351036072,0.015101250261068344,-1.2671518325805664],"type":"VEC3"},{"bufferView":13,"componentType":5126,"count":36,"max":[0.9854909181594849,0.7013065814971924,0.6997342109680176],"min":[-0.9854909181594849,-0.8115137219429016,-0.9948099851608276],"type":"VEC3"},{"bufferView":14,"componentType":5126,"count":36,"max":[0.7919837236404419,1],"min":[0.5327425003051758,0.781286895275116],"type":"VEC2"},{"bufferView":15,"componentType":5123,"count":48,"max":[35],"min":[0],"type":"SCALAR"},{"bufferView":16,"componentType":5126,"count":158,"max":[0.36913999915122986,0.1285918802022934,-1.0143938064575195],"min":[-0.36913999915122986,-0.06332875043153763,-1.1889981031417847],"type":"VEC3"},{"bufferView":17,"componentType":5126,"count":158,"max":[1,0.9063071012496948,0.9961950778961182],"min":[-1,-0.9063059091567993,-0.9961939454078674],"type":"VEC3"},{"bufferView":18,"componentType":5126,"count":158,"max":[0.5120499730110168,0.5130812525749207],"min":[0.3125,0.0625],"type":"VEC2"},{"bufferView":19,"componentType":5123,"count":204,"max":[157],"min":[0],"type":"SCALAR"},{"bufferView":20,"componentType":5126,"count":184,"max":[0.35783374309539795,0.31239017844200134,0.37806984782218933],"min":[-0.35783374309539795,-0.2975679636001587,-0.3301764130592346],"type":"VEC3"},{"bufferView":21,"componentType":5126,"count":184,"max":[0.9629853367805481,0.9541661739349365,0.9520514607429504],"min":[-0.9629853367805481,-0.999392569065094,-0.9744696021080017],"type":"VEC3"},{"bufferView":22,"componentType":5126,"count":184,"max":[0.803819477558136,0.8185299634933472],"min":[0.21875,0.34375],"type":"VEC2"},{"bufferView":23,"componentType":5123,"count":240,"max":[183],"min":[0],"type":"SCALAR"},{"bufferView":24,"componentType":5126,"count":384,"max":[0.06731687486171722,0.7552481293678284,-0.983335018157959],"min":[-0.06731687486171722,0.2707362473011017,-1.285640001296997],"type":"VEC3"},{"bufferView":25,"componentType":5126,"count":384,"max":[1,0.9636625647544861,0.9822462797164917],"min":[-1,-0.9205188751220703,-0.9822462797164917],"type":"VEC3"},{"bufferView":26,"componentType":5126,"count":384,"max":[0.5154739618301392,0.28578436374664307],"min":[0.203125,0.03125],"type":"VEC2"},{"bufferView":27,"componentType":5123,"count":3,"max":[2],"min":[0],"type":"SCALAR"},{"bufferView":28,"componentType":5123,"count":24,"max":[20],"min":[3],"type":"SCALAR"},{"bufferView":29,"componentType":5123,"count":9,"max":[29],"min":[21],"type":"SCALAR"},{"bufferView":30,"componentType":5123,"count":6,"max":[35],"min":[30],"type":"SCALAR"},{"bufferView":31,"componentType":5123,"count":6,"max":[39],"min":[36],"type":"SCALAR"},{"bufferView":32,"componentType":5123,"count":48,"max":[77],"min":[40],"type":"SCALAR"},{"bufferView":33,"componentType":5123,"count":6,"max":[81],"min":[78],"type":"SCALAR"},{"bufferView":34,"componentType":5123,"count":18,"max":[95],"min":[82],"type":"SCALAR"},{"bufferView":35,"componentType":5123,"count":6,"max":[99],"min":[96],"type":"SCALAR"},{"bufferView":36,"componentType":5123,"count":123,"max":[212],"min":[100],"type":"SCALAR"},{"bufferView":37,"componentType":5123,"count":3,"max":[215],"min":[213],"type":"SCALAR"},{"bufferView":38,"componentType":5123,"count":27,"max":[234],"min":[216],"type":"SCALAR"},{"bufferView":39,"componentType":5123,"count":6,"max":[240],"min":[235],"type":"SCALAR"},{"bufferView":40,"componentType":5123,"count":9,"max":[247],"min":[241],"type":"SCALAR"},{"bufferView":41,"componentType":5123,"count":12,"max":[257],"min":[248],"type":"SCALAR"},{"bufferView":42,"componentType":5123,"count":6,"max":[261],"min":[258],"type":"SCALAR"},{"bufferView":43,"componentType":5123,"count":6,"max":[265],"min":[262],"type":"SCALAR"},{"bufferView":44,"componentType":5123,"count":15,"max":[278],"min":[266],"type":"SCALAR"},{"bufferView":45,"componentType":5123,"count":12,"max":[288],"min":[279],"type":"SCALAR"},{"bufferView":46,"componentType":5123,"count":99,"max":[383],"min":[289],"type":"SCALAR"},{"bufferView":47,"componentType":5126,"count":112,"max":[0.7864999771118164,0.20694875717163086,0.20694875717163086],"min":[-0.7864999771118164,-0.20694875717163086,-0.20694875717163086],"type":"VEC3"},{"bufferView":48,"componentType":5126,"count":112,"max":[1,1,1],"min":[-1,-1,-1],"type":"VEC3"},{"bufferView":49,"componentType":5126,"count":112,"max":[0.998115599155426,1.0889015197753906],"min":[0.09375,0.28125],"type":"VEC2"},{"bufferView":50,"componentType":5123,"count":42,"max":[27],"min":[0],"type":"SCALAR"},{"bufferView":51,"componentType":5123,"count":6,"max":[31],"min":[28],"type":"SCALAR"},{"bufferView":52,"componentType":5123,"count":12,"max":[39],"min":[32],"type":"SCALAR"},{"bufferView":53,"componentType":5123,"count":12,"max":[47],"min":[40],"type":"SCALAR"},{"bufferView":54,"componentType":5123,"count":54,"max":[83],"min":[48],"type":"SCALAR"},{"bufferView":55,"componentType":5123,"count":6,"max":[87],"min":[84],"type":"SCALAR"},{"bufferView":56,"componentType":5123,"count":12,"max":[95],"min":[88],"type":"SCALAR"},{"bufferView":57,"componentType":5123,"count":12,"max":[103],"min":[96],"type":"SCALAR"},{"bufferView":58,"componentType":5123,"count":12,"max":[111],"min":[104],"type":"SCALAR"},{"bufferView":59,"componentType":5126,"count":112,"max":[0.7864999771118164,0.20694875717163086,0.20694875717163086],"min":[-0.7864999771118164,-0.20694875717163086,-0.20694875717163086],"type":"VEC3"},{"bufferView":60,"componentType":5126,"count":112,"max":[1,1,1],"min":[-1,-1,-1],"type":"VEC3"},{"bufferView":61,"componentType":5126,"count":112,"max":[0.998115599155426,1.0889015197753906],"min":[0.09375,0.28125],"type":"VEC2"},{"bufferView":62,"componentType":5123,"count":42,"max":[27],"min":[0],"type":"SCALAR"},{"bufferView":63,"componentType":5123,"count":6,"max":[31],"min":[28],"type":"SCALAR"},{"bufferView":64,"componentType":5123,"count":12,"max":[39],"min":[32],"type":"SCALAR"},{"bufferView":65,"componentType":5123,"count":12,"max":[47],"min":[40],"type":"SCALAR"},{"bufferView":66,"componentType":5123,"count":54,"max":[83],"min":[48],"type":"SCALAR"},{"bufferView":67,"componentType":5123,"count":6,"max":[87],"min":[84],"type":"SCALAR"},{"bufferView":68,"componentType":5123,"count":12,"max":[95],"min":[88],"type":"SCALAR"},{"bufferView":69,"componentType":5123,"count":12,"max":[103],"min":[96],"type":"SCALAR"},{"bufferView":70,"componentType":5123,"count":12,"max":[111],"min":[104],"type":"SCALAR"},{"bufferView":71,"componentType":5126,"count":112,"max":[0.7864999771118164,0.20694875717163086,0.20694875717163086],"min":[-0.7864999771118164,-0.20694875717163086,-0.20694875717163086],"type":"VEC3"},{"bufferView":72,"componentType":5126,"count":112,"max":[1,1,1],"min":[-1,-1,-1],"type":"VEC3"},{"bufferView":73,"componentType":5126,"count":112,"max":[0.998115599155426,1.0889015197753906],"min":[0.09375,0.28125],"type":"VEC2"},{"bufferView":74,"componentType":5123,"count":42,"max":[27],"min":[0],"type":"SCALAR"},{"bufferView":75,"componentType":5123,"count":6,"max":[31],"min":[28],"type":"SCALAR"},{"bufferView":76,"componentType":5123,"count":12,"max":[39],"min":[32],"type":"SCALAR"},{"bufferView":77,"componentType":5123,"count":12,"max":[47],"min":[40],"type":"SCALAR"},{"bufferView":78,"componentType":5123,"count":54,"max":[83],"min":[48],"type":"SCALAR"},{"bufferView":79,"componentType":5123,"count":6,"max":[87],"min":[84],"type":"SCALAR"},{"bufferView":80,"componentType":5123,"count":12,"max":[95],"min":[88],"type":"SCALAR"},{"bufferView":81,"componentType":5123,"count":12,"max":[103],"min":[96],"type":"SCALAR"},{"bufferView":82,"componentType":5123,"count":12,"max":[111],"min":[104],"type":"SCALAR"},{"bufferView":83,"componentType":5126,"count":4,"max":[1],"min":[0],"type":"SCALAR"},{"bufferView":84,"componentType":5126,"count":4,"max":[0,0,0,1],"min":[-0.8660253882408142,0,0,-1],"type":"VEC4"},{"bufferView":85,"componentType":5126,"count":3,"max":[1],"min":[0],"type":"SCALAR"},{"bufferView":86,"componentType":5126,"count":3,"max":[0,0,0,1],"min":[-0.9999405145645142,0,0,-0.9997619986534119],"type":"VEC4"},{"bufferView":87,"componentType":5126,"count":3,"max":[1],"min":[0],"type":"SCALAR"},{"bufferView":88,"componentType":5126,"count":3,"max":[0,0,0,1],"min":[-0.9999405145645142,0,0,-0.9997619986534119],"type":"VEC4"}],"materials":[{"pbrMetallicRoughness":{"metallicFactor":0,"roughnessFactor":1,"baseColorTexture":{"index":0}},"alphaMode":"MASK","alphaCutoff":0.05,"doubleSided":true},{"pbrMetallicRoughness":{"metallicFactor":0,"roughnessFactor":1,"baseColorTexture":{"index":1}},"alphaMode":"MASK","alphaCutoff":0.05,"doubleSided":true},{"pbrMetallicRoughness":{"metallicFactor":0,"roughnessFactor":1,"baseColorTexture":{"index":2}},"alphaMode":"MASK","alphaCutoff":0.05,"doubleSided":true},{"pbrMetallicRoughness":{"metallicFactor":0,"roughnessFactor":1,"baseColorTexture":{"index":3}},"alphaMode":"MASK","alphaCutoff":0.05,"doubleSided":true},{"pbrMetallicRoughness":{"metallicFactor":0,"roughnessFactor":1,"baseColorTexture":{"index":4}},"alphaMode":"MASK","alphaCutoff":0.05,"doubleSided":true}],"textures":[{"sampler":0,"source":0},{"sampler":1,"source":1,"name":"ironbox.png"},{"sampler":2,"source":2,"name":"light5.png"},{"sampler":3,"source":3,"name":"tile86.png"},{"sampler":4,"source":4}],"samplers":[{"magFilter":9728,"minFilter":9728,"wrapS":33071,"wrapT":33071},{"magFilter":9728,"minFilter":9728,"wrapS":33071,"wrapT":33071},{"magFilter":9728,"minFilter":9728,"wrapS":33071,"wrapT":33071},{"magFilter":9728,"minFilter":9728,"wrapS":33071,"wrapT":33071},{"magFilter":9728,"minFilter":9728,"wrapS":33071,"wrapT":33071}],"images":[{"mimeType":"image/png","uri":"data:image/png;base64,"},{"mimeType":"image/png","uri":"data:image/png;base64,"},{"mimeType":"image/png","uri":"data:image/png;base64,"},{"mimeType":"image/png","uri":"data:image/png;base64,"},{"mimeType":"image/png","uri":"data:image/png;base64,"}],"meshes":[{"primitives":[{"mode":4,"attributes":{"POSITION":0,"NORMAL":1,"TEXCOORD_0":2},"indices":3,"material":0}]},{"primitives":[{"mode":4,"attributes":{"POSITION":4,"NORMAL":5,"TEXCOORD_0":6},"indices":7,"material":1}]},{"primitives":[{"mode":4,"attributes":{"POSITION":8,"NORMAL":9,"TEXCOORD_0":10},"indices":11,"material":1}]},{"primitives":[{"mode":4,"attributes":{"POSITION":12,"NORMAL":13,"TEXCOORD_0":14},"indices":15,"material":2}]},{"primitives":[{"mode":4,"attributes":{"POSITION":16,"NORMAL":17,"TEXCOORD_0":18},"indices":19,"material":1}]},{"primitives":[{"mode":4,"attributes":{"POSITION":20,"NORMAL":21,"TEXCOORD_0":22},"indices":23,"material":0}]},{"primitives":[{"mode":4,"attributes":{"POSITION":24,"NORMAL":25,"TEXCOORD_0":26},"indices":27,"material":0},{"mode":4,"attributes":{"POSITION":24,"NORMAL":25,"TEXCOORD_0":26},"indices":28,"material":1},{"mode":4,"attributes":{"POSITION":24,"NORMAL":25,"TEXCOORD_0":26},"indices":29,"material":0},{"mode":4,"attributes":{"POSITION":24,"NORMAL":25,"TEXCOORD_0":26},"indices":30,"material":1},{"mode":4,"attributes":{"POSITION":24,"NORMAL":25,"TEXCOORD_0":26},"indices":31,"material":0},{"mode":4,"attributes":{"POSITION":24,"NORMAL":25,"TEXCOORD_0":26},"indices":32,"material":1},{"mode":4,"attributes":{"POSITION":24,"NORMAL":25,"TEXCOORD_0":26},"indices":33,"material":0},{"mode":4,"attributes":{"POSITION":24,"NORMAL":25,"TEXCOORD_0":26},"indices":34,"material":1},{"mode":4,"attributes":{"POSITION":24,"NORMAL":25,"TEXCOORD_0":26},"indices":35,"material":0},{"mode":4,"attributes":{"POSITION":24,"NORMAL":25,"TEXCOORD_0":26},"indices":36,"material":1},{"mode":4,"attributes":{"POSITION":24,"NORMAL":25,"TEXCOORD_0":26},"indices":37,"material":0},{"mode":4,"attributes":{"POSITION":24,"NORMAL":25,"TEXCOORD_0":26},"indices":38,"material":1},{"mode":4,"attributes":{"POSITION":24,"NORMAL":25,"TEXCOORD_0":26},"indices":39,"material":0},{"mode":4,"attributes":{"POSITION":24,"NORMAL":25,"TEXCOORD_0":26},"indices":40,"material":1},{"mode":4,"attributes":{"POSITION":24,"NORMAL":25,"TEXCOORD_0":26},"indices":41,"material":0},{"mode":4,"attributes":{"POSITION":24,"NORMAL":25,"TEXCOORD_0":26},"indices":42,"material":1},{"mode":4,"attributes":{"POSITION":24,"NORMAL":25,"TEXCOORD_0":26},"indices":43,"material":0},{"mode":4,"attributes":{"POSITION":24,"NORMAL":25,"TEXCOORD_0":26},"indices":44,"material":1},{"mode":4,"attributes":{"POSITION":24,"NORMAL":25,"TEXCOORD_0":26},"indices":45,"material":0},{"mode":4,"attributes":{"POSITION":24,"NORMAL":25,"TEXCOORD_0":26},"indices":46,"material":1}]},{"primitives":[{"mode":4,"attributes":{"POSITION":47,"NORMAL":48,"TEXCOORD_0":49},"indices":50,"material":3},{"mode":4,"attributes":{"POSITION":47,"NORMAL":48,"TEXCOORD_0":49},"indices":51,"material":4},{"mode":4,"attributes":{"POSITION":47,"NORMAL":48,"TEXCOORD_0":49},"indices":52,"material":3},{"mode":4,"attributes":{"POSITION":47,"NORMAL":48,"TEXCOORD_0":49},"indices":53,"material":4},{"mode":4,"attributes":{"POSITION":47,"NORMAL":48,"TEXCOORD_0":49},"indices":54,"material":3},{"mode":4,"attributes":{"POSITION":47,"NORMAL":48,"TEXCOORD_0":49},"indices":55,"material":4},{"mode":4,"attributes":{"POSITION":47,"NORMAL":48,"TEXCOORD_0":49},"indices":56,"material":3},{"mode":4,"attributes":{"POSITION":47,"NORMAL":48,"TEXCOORD_0":49},"indices":57,"material":4},{"mode":4,"attributes":{"POSITION":47,"NORMAL":48,"TEXCOORD_0":49},"indices":58,"material":3}]},{"primitives":[{"mode":4,"attributes":{"POSITION":59,"NORMAL":60,"TEXCOORD_0":61},"indices":62,"material":3},{"mode":4,"attributes":{"POSITION":59,"NORMAL":60,"TEXCOORD_0":61},"indices":63,"material":4},{"mode":4,"attributes":{"POSITION":59,"NORMAL":60,"TEXCOORD_0":61},"indices":64,"material":3},{"mode":4,"attributes":{"POSITION":59,"NORMAL":60,"TEXCOORD_0":61},"indices":65,"material":4},{"mode":4,"attributes":{"POSITION":59,"NORMAL":60,"TEXCOORD_0":61},"indices":66,"material":3},{"mode":4,"attributes":{"POSITION":59,"NORMAL":60,"TEXCOORD_0":61},"indices":67,"material":4},{"mode":4,"attributes":{"POSITION":59,"NORMAL":60,"TEXCOORD_0":61},"indices":68,"material":3},{"mode":4,"attributes":{"POSITION":59,"NORMAL":60,"TEXCOORD_0":61},"indices":69,"material":4},{"mode":4,"attributes":{"POSITION":59,"NORMAL":60,"TEXCOORD_0":61},"indices":70,"material":3}]},{"primitives":[{"mode":4,"attributes":{"POSITION":71,"NORMAL":72,"TEXCOORD_0":73},"indices":74,"material":3},{"mode":4,"attributes":{"POSITION":71,"NORMAL":72,"TEXCOORD_0":73},"indices":75,"material":4},{"mode":4,"attributes":{"POSITION":71,"NORMAL":72,"TEXCOORD_0":73},"indices":76,"material":3},{"mode":4,"attributes":{"POSITION":71,"NORMAL":72,"TEXCOORD_0":73},"indices":77,"material":4},{"mode":4,"attributes":{"POSITION":71,"NORMAL":72,"TEXCOORD_0":73},"indices":78,"material":3},{"mode":4,"attributes":{"POSITION":71,"NORMAL":72,"TEXCOORD_0":73},"indices":79,"material":4},{"mode":4,"attributes":{"POSITION":71,"NORMAL":72,"TEXCOORD_0":73},"indices":80,"material":3},{"mode":4,"attributes":{"POSITION":71,"NORMAL":72,"TEXCOORD_0":73},"indices":81,"material":4},{"mode":4,"attributes":{"POSITION":71,"NORMAL":72,"TEXCOORD_0":73},"indices":82,"material":3}]}],"animations":[{"name":"animation","samplers":[{"input":83,"output":84,"interpolation":"LINEAR"},{"input":85,"output":86,"interpolation":"LINEAR"},{"input":87,"output":88,"interpolation":"LINEAR"}],"channels":[{"sampler":0,"target":{"node":8,"path":"rotation"}},{"sampler":1,"target":{"node":10,"path":"rotation"}},{"sampler":2,"target":{"node":12,"path":"rotation"}}]}]}