{"asset":{"version":"2.0","generator":"Blockbench 4.12.3 glTF exporter"},"scenes":[{"nodes":[1],"name":"blockbench_export"}],"scene":0,"nodes":[{"translation":[0,0.40625,0],"name":"Shell","mesh":0},{"children":[0]}],"bufferViews":[{"buffer":0,"byteOffset":0,"byteLength":4608,"target":34962,"byteStride":12},{"buffer":0,"byteOffset":4608,"byteLength":4608,"target":34962,"byteStride":12},{"buffer":0,"byteOffset":9216,"byteLength":3072,"target":34962,"byteStride":8},{"buffer":0,"byteOffset":12288,"byteLength":984,"target":34963}],"buffers":[{"byteLength":13272,"uri":"data:application/octet-stream;base64,"}],"accessors":[{"bufferView":0,"componentType":5126,"count":384,"max":[0.8364787697792053,0.8156062364578247,0.8694587349891663],"min":[-0.8550418615341187,0.13991999626159668,-0.8694587349891663],"type":"VEC3"},{"bufferView":1,"componentType":5126,"count":384,"max":[0.9994455575942993,0.9999997019767761,1],"min":[-0.9994455575942993,-1,-1],"type":"VEC3"},{"bufferView":2,"componentType":5126,"count":384,"max":[0.9159021973609924,0.70375657081604],"min":[0.21875,0.3125],"type":"VEC2"},{"bufferView":3,"componentType":5123,"count":492,"max":[383],"min":[0],"type":"SCALAR"}],"materials":[{"pbrMetallicRoughness":{"metallicFactor":0,"roughnessFactor":1,"baseColorTexture":{"index":0}},"alphaMode":"MASK","alphaCutoff":0.05,"doubleSided":true}],"textures":[{"sampler":0,"source":0,"name":"tile90.png"}],"samplers":[{"magFilter":9728,"minFilter":9728,"wrapS":33071,"wrapT":33071}],"images":[{"mimeType":"image/png","uri":"data:image/png;base64,"}],"meshes":[{"primitives":[{"mode":4,"attributes":{"POSITION":0,"NORMAL":1,"TEXCOORD_0":2},"indices":3,"material":0}]}]}